<!-- Generated from magnets/core/icons.py by build/export_icons.py; do not edit. -->
<svg xmlns="http://www.w3.org/2000/svg">
  <symbol id="i-spacing" viewBox="0 0 1600 1600"><polygon points="150,550 650,550 650,1050 150,1050" fill="none" stroke="currentColor" stroke-width="100" stroke-linecap="round" stroke-linejoin="round" opacity="0.6"/><polygon points="950,550 1450,550 1450,1050 950,1050" fill="none" stroke="currentColor" stroke-width="100" stroke-linecap="round" stroke-linejoin="round"/></symbol>
  <symbol id="i-repeat_size" viewBox="0 0 1600 1600"><polygon points="150,550 650,550 650,1050 150,1050" fill="none" stroke="currentColor" stroke-width="100" stroke-linecap="round" stroke-linejoin="round" stroke-dasharray="0 200" opacity="0.6"/><polygon points="950,550 1450,550 1450,1050 950,1050" fill="none" stroke="currentColor" stroke-width="100" stroke-linecap="round" stroke-linejoin="round"/></symbol>
  <symbol id="i-equal_size" viewBox="0 0 1600 1600"><polyline points="150,550 650,550" fill="none" stroke="currentColor" stroke-width="100" stroke-linecap="round" stroke-linejoin="round"/><polyline points="150,1050 650,1050" fill="none" stroke="currentColor" stroke-width="100" stroke-linecap="round" stroke-linejoin="round"/><polygon points="950,550 1450,550 1450,1050 950,1050" fill="none" stroke="currentColor" stroke-width="100" stroke-linecap="round" stroke-linejoin="round"/></symbol>
  <symbol id="i-midpoint" viewBox="0 0 1600 1600"><polyline points="150,750 1450,750" fill="none" stroke="currentColor" stroke-width="100" stroke-linecap="round" stroke-linejoin="round" opacity="0.6"/><polyline points="150,550 150,950" fill="none" stroke="currentColor" stroke-width="100" stroke-linecap="round" stroke-linejoin="round" opacity="0.6"/><polyline points="1450,550 1450,950" fill="none" stroke="currentColor" stroke-width="100" stroke-linecap="round" stroke-linejoin="round" opacity="0.6"/><polygon points="800,400 1150,750 800,1100 450,750" fill="none" stroke="currentColor" stroke-width="100" stroke-linecap="round" stroke-linejoin="round"/></symbol>
  <symbol id="i-tangency" viewBox="0 0 1600 1600"><polyline points="150,1450 1450,1450" fill="none" stroke="currentColor" stroke-width="100" stroke-linecap="round" stroke-linejoin="round" opacity="0.6"/><polygon points="450,650 1150,650 1150,1350 450,1350" fill="none" stroke="currentColor" stroke-width="100" stroke-linecap="round" stroke-linejoin="round"/></symbol>
  <symbol id="i-sphere_tangency" viewBox="0 0 1600 1600"><circle cx="550" cy="750" r="400" fill="none" stroke="currentColor" stroke-width="100" stroke-linecap="round" stroke-linejoin="round" opacity="0.6"/><circle cx="1200" cy="750" r="250" fill="none" stroke="currentColor" stroke-width="100" stroke-linecap="round" stroke-linejoin="round"/></symbol>
  <symbol id="i-concentric" viewBox="0 0 1600 1600"><circle cx="800" cy="800" r="650" fill="none" stroke="currentColor" stroke-width="100" stroke-linecap="round" stroke-linejoin="round" opacity="0.6"/><circle cx="800" cy="800" r="350" fill="none" stroke="currentColor" stroke-width="100" stroke-linecap="round" stroke-linejoin="round"/></symbol>
  <symbol id="i-parallel" viewBox="0 0 1600 1600"><polyline points="150,1050 1050,150" fill="none" stroke="currentColor" stroke-width="100" stroke-linecap="round" stroke-linejoin="round" opacity="0.6"/><polyline points="550,1450 1450,550" fill="none" stroke="currentColor" stroke-width="100" stroke-linecap="round" stroke-linejoin="round"/></symbol>
  <symbol id="i-collinear" viewBox="0 0 1600 1600"><polyline points="150,1450 650,950" fill="none" stroke="currentColor" stroke-width="100" stroke-linecap="round" stroke-linejoin="round" opacity="0.6"/><polyline points="650,950 1050,550" fill="none" stroke="currentColor" stroke-width="100" stroke-linecap="round" stroke-linejoin="round" stroke-dasharray="0 200" opacity="0.6"/><circle cx="1300" cy="300" r="200" fill="currentColor"/></symbol>
  <symbol id="i-coplanar" viewBox="0 0 1600 1600"><polygon points="150,1150 550,450 1450,450 1050,1150" fill="none" stroke="currentColor" stroke-width="100" stroke-linecap="round" stroke-linejoin="round" opacity="0.6"/><circle cx="800" cy="800" r="200" fill="currentColor"/></symbol>
  <symbol id="i-symmetry" viewBox="0 0 1600 1600"><polyline points="750,150 750,1450" fill="none" stroke="currentColor" stroke-width="100" stroke-linecap="round" stroke-linejoin="round" stroke-dasharray="100 200" opacity="0.6"/><polygon points="550,450 550,1150 150,800" fill="none" stroke="currentColor" stroke-width="100" stroke-linecap="round" stroke-linejoin="round" opacity="0.6"/><polygon points="950,450 950,1150 1350,800" fill="none" stroke="currentColor" stroke-width="100" stroke-linecap="round" stroke-linejoin="round"/></symbol>
  <symbol id="i-rotate" viewBox="0 0 1600 1600"><path d="M283.169 611.889A550 550 0 1 1 895.506 1341.644" fill="none" stroke="currentColor" stroke-width="100" stroke-linecap="round" stroke-linejoin="round"/><polyline points="895.506,1341.644 1127.876,1450" fill="none" stroke="currentColor" stroke-width="100" stroke-linecap="round" stroke-linejoin="round"/><circle cx="800" cy="800" r="200" fill="currentColor" opacity="0.6"/></symbol>
</svg>
